<svg width="900" height="554" viewBox="0 0 900 554" fill="none" xmlns="http://www.w3.org/2000/svg">
<path d="M0.0272257 136.939V462.559H90.8448L236.27 155.651L429.3 109.243L411.345 40.032L170.752 97.007L62.9349 288.098L64.4039 121.879L0.0272257 136.939Z" fill="black"/>
<path d="M434.409 128.896L252.203 172.394L115.863 462.53H520.976L434.409 128.896ZM259.263 367.677L299.708 249.477L369.718 234.189L386.148 367.677H259.263Z" fill="black"/>
<path d="M456.4 123.648L550.541 462.517H617.114L546.833 102.056L456.4 123.648Z" fill="black"/>
<path d="M451.849 103.838L431.997 34.1848L536.763 11.3094L545.619 81.4191L451.849 103.838Z" fill="black"/>
<path d="M563.787 77.2549L557.298 7.78675L634.225 0L755.961 198.064L803.352 80.4495H864.705L866.645 138.023L806.918 282.293L896.509 394.389L899.104 462.559H829.636L775.043 379.5L711.494 553.377H648.572L638.831 471.515L702.395 295.713" fill="black"/>
<path d="M0 476.836H27.8158C31.6938 476.836 35.3603 477.188 38.8153 477.893C42.2702 478.598 45.2668 479.832 47.8052 481.595C50.414 483.287 52.4588 485.614 53.9395 488.575C55.4907 491.466 56.2663 495.133 56.2663 499.575C56.2663 503.946 55.5612 507.613 54.151 510.574C52.7408 513.536 50.8018 515.898 48.334 517.66C45.8662 519.423 42.94 520.692 39.5556 521.468C36.1712 522.173 32.5047 522.526 28.5562 522.526H16.4991V551.716H0V476.836ZM16.4991 508.565H27.4986C28.9792 508.565 30.3894 508.424 31.7291 508.142C33.1393 507.86 34.3732 507.401 35.4308 506.767C36.559 506.062 37.4403 505.145 38.0749 504.017C38.78 502.818 39.1326 501.338 39.1326 499.575C39.1326 497.671 38.6742 496.155 37.7576 495.027C36.9115 493.828 35.7834 492.912 34.3732 492.277C33.0335 491.643 31.5176 491.255 29.8254 491.114C28.1331 490.902 26.5114 490.796 24.9602 490.796H16.4991V508.565Z" fill="black"/>
<path d="M133.99 522.843C133.99 527.285 133.32 531.374 131.981 535.111C130.641 538.848 128.631 542.092 125.952 544.842C123.343 547.592 120.065 549.742 116.116 551.293C112.168 552.844 107.62 553.62 102.473 553.62C97.2549 553.62 92.6718 552.844 88.7233 551.293C84.7748 549.742 81.4609 547.592 78.7815 544.842C76.1727 542.092 74.1984 538.848 72.8588 535.111C71.5191 531.374 70.8493 527.285 70.8493 522.843V476.836H87.3484V522.208C87.3484 524.535 87.7009 526.686 88.406 528.66C89.1816 530.634 90.2393 532.362 91.5789 533.842C92.9186 535.252 94.5051 536.381 96.3383 537.227C98.2421 538.002 100.287 538.39 102.473 538.39C104.658 538.39 106.668 538.002 108.501 537.227C110.334 536.381 111.921 535.252 113.26 533.842C114.6 532.362 115.623 530.634 116.328 528.66C117.103 526.686 117.491 524.535 117.491 522.208V476.836H133.99V522.843Z" fill="black"/>
<path d="M153.473 476.836H181.395C184.638 476.836 187.881 477.082 191.125 477.576C194.439 477.999 197.4 478.916 200.009 480.326C202.618 481.666 204.733 483.569 206.355 486.037C207.977 488.505 208.787 491.784 208.787 495.873C208.787 500.104 207.589 503.629 205.191 506.449C202.865 509.199 199.762 511.174 195.884 512.372V512.584C198.352 512.936 200.573 513.641 202.547 514.699C204.592 515.686 206.32 516.991 207.73 518.612C209.21 520.164 210.339 521.997 211.114 524.112C211.89 526.227 212.278 528.484 212.278 530.881C212.278 534.829 211.431 538.143 209.739 540.823C208.047 543.432 205.861 545.547 203.182 547.169C200.503 548.79 197.471 549.954 194.086 550.659C190.772 551.364 187.458 551.716 184.144 551.716H153.473V476.836ZM169.972 506.767H181.923C183.193 506.767 184.426 506.626 185.625 506.344C186.894 506.062 188.022 505.603 189.01 504.969C189.997 504.334 190.772 503.488 191.336 502.43C191.971 501.373 192.288 500.104 192.288 498.623C192.288 497.072 191.936 495.803 191.231 494.815C190.596 493.758 189.75 492.947 188.692 492.383C187.635 491.819 186.436 491.431 185.096 491.22C183.757 490.937 182.452 490.796 181.183 490.796H169.972V506.767ZM169.972 537.756H184.779C186.048 537.756 187.317 537.615 188.587 537.332C189.926 537.05 191.125 536.557 192.182 535.852C193.24 535.147 194.086 534.23 194.721 533.102C195.426 531.974 195.778 530.599 195.778 528.977C195.778 527.214 195.32 525.804 194.404 524.747C193.557 523.618 192.465 522.772 191.125 522.208C189.785 521.644 188.34 521.256 186.789 521.045C185.237 520.833 183.792 520.728 182.452 520.728H169.972V537.756Z" fill="black"/>
<path d="M226.919 476.836H243.418V536.486H273.984V551.716H226.919V476.836Z" fill="black"/>
<path d="M287.11 476.836H303.609V551.716H287.11V476.836Z" fill="black"/>
<path d="M404.815 551.716H359.442C353.59 551.716 348.16 550.87 343.154 549.178C338.219 547.415 333.953 544.877 330.357 541.563C326.761 538.249 323.941 534.23 321.896 529.506C319.851 524.782 318.829 519.388 318.829 513.324C318.829 507.683 319.851 502.501 321.896 497.777C324.011 493.053 326.867 488.998 330.463 485.614C334.059 482.23 338.289 479.621 343.154 477.788C348.019 475.884 353.237 474.932 358.807 474.932C364.378 474.932 369.595 475.884 374.46 477.788C379.326 479.691 383.556 482.335 387.152 485.72C390.748 489.104 393.568 493.159 395.613 497.883C397.728 502.536 398.786 507.683 398.786 513.324C398.786 516.003 398.469 518.612 397.834 521.151C397.27 523.689 396.389 526.086 395.19 528.343C393.991 530.599 392.44 532.644 390.536 534.477C388.633 536.24 386.412 537.685 383.873 538.813V539.025H404.815V551.716ZM335.962 513.324C335.962 516.568 336.562 519.599 337.76 522.42C338.959 525.24 340.581 527.708 342.626 529.823C344.741 531.868 347.173 533.49 349.923 534.688C352.673 535.887 355.634 536.486 358.807 536.486C361.98 536.486 364.942 535.887 367.691 534.688C370.441 533.49 372.839 531.868 374.883 529.823C376.999 527.708 378.656 525.24 379.854 522.42C381.053 519.599 381.652 516.568 381.652 513.324C381.652 510.081 381.053 507.049 379.854 504.228C378.656 501.408 376.999 498.976 374.883 496.931C372.839 494.815 370.441 493.159 367.691 491.96C364.942 490.761 361.98 490.162 358.807 490.162C355.634 490.162 352.673 490.761 349.923 491.96C347.173 493.159 344.741 494.815 342.626 496.931C340.581 498.976 338.959 501.408 337.76 504.228C336.562 507.049 335.962 510.081 335.962 513.324Z" fill="black"/>
<path d="M480.284 522.843C480.284 527.285 479.614 531.374 478.274 535.111C476.934 538.848 474.925 542.092 472.246 544.842C469.637 547.592 466.358 549.742 462.409 551.293C458.461 552.844 453.913 553.62 448.766 553.62C443.548 553.62 438.965 552.844 435.017 551.293C431.068 549.742 427.754 547.592 425.075 544.842C422.466 542.092 420.492 538.848 419.152 535.111C417.812 531.374 417.143 527.285 417.143 522.843V476.836H433.642V522.208C433.642 524.535 433.994 526.686 434.699 528.66C435.475 530.634 436.533 532.362 437.872 533.842C439.212 535.252 440.798 536.381 442.632 537.227C444.535 538.002 446.58 538.39 448.766 538.39C450.952 538.39 452.961 538.002 454.794 537.227C456.628 536.381 458.214 535.252 459.554 533.842C460.894 532.362 461.916 530.634 462.621 528.66C463.397 526.686 463.784 524.535 463.784 522.208V476.836H480.284V522.843Z" fill="black"/>
<path d="M500.401 476.836H551.273V492.066H516.9V506.026H549.37V521.256H516.9V536.486H553.177V551.716H500.401V476.836Z" fill="black"/>
<path d="M607.633 495.133C606.293 493.441 604.46 492.207 602.133 491.431C599.877 490.585 597.726 490.162 595.682 490.162C594.483 490.162 593.249 490.303 591.98 490.585C590.711 490.867 589.512 491.325 588.384 491.96C587.256 492.524 586.339 493.3 585.634 494.287C584.929 495.274 584.576 496.472 584.576 497.883C584.576 500.139 585.423 501.866 587.115 503.065C588.807 504.264 590.922 505.286 593.461 506.132C596.069 506.978 598.854 507.824 601.816 508.671C604.777 509.517 607.527 510.715 610.065 512.266C612.674 513.818 614.825 515.898 616.517 518.507C618.209 521.115 619.055 524.606 619.055 528.977C619.055 533.137 618.28 536.768 616.729 539.871C615.177 542.973 613.062 545.547 610.383 547.592C607.774 549.636 604.707 551.152 601.181 552.139C597.726 553.127 594.06 553.62 590.182 553.62C585.317 553.62 580.804 552.88 576.644 551.399C572.484 549.918 568.606 547.521 565.01 544.207L576.75 531.304C578.442 533.56 580.557 535.323 583.096 536.592C585.705 537.791 588.384 538.39 591.134 538.39C592.473 538.39 593.813 538.249 595.153 537.967C596.563 537.615 597.797 537.121 598.854 536.486C599.983 535.852 600.864 535.041 601.499 534.054C602.204 533.067 602.556 531.903 602.556 530.564C602.556 528.307 601.675 526.545 599.912 525.275C598.22 523.936 596.069 522.808 593.461 521.891C590.852 520.974 588.031 520.058 584.999 519.141C581.968 518.224 579.147 516.991 576.538 515.439C573.93 513.888 571.744 511.843 569.981 509.305C568.289 506.767 567.443 503.418 567.443 499.258C567.443 495.239 568.218 491.713 569.769 488.681C571.391 485.649 573.506 483.111 576.115 481.066C578.795 479.021 581.862 477.505 585.317 476.518C588.772 475.461 592.332 474.932 595.999 474.932C600.229 474.932 604.319 475.531 608.267 476.73C612.216 477.929 615.777 479.938 618.95 482.758L607.633 495.133Z" fill="black"/>
<path d="M574.655 146.426L633.641 438.517L681.317 310.933L574.655 146.426Z" fill="black"/>
</svg>
